<mxfile host="app.diagrams.net" agent="Mozilla/5.0 (Windows NT 10.0; Win64; x64) AppleWebKit/537.36 (KHTML, like Gecko) Chrome/139.0.0.0 Safari/537.36 Edg/139.0.0.0" version="28.0.7">
  <diagram name="Page-1" id="l8mYfznrZCPLJ0lubX3o">
    <mxGraphModel dx="1226" dy="642" grid="1" gridSize="10" guides="1" tooltips="1" connect="1" arrows="1" fold="1" page="1" pageScale="1" pageWidth="850" pageHeight="1100" math="0" shadow="0">
      <root>
        <mxCell id="0" />
        <mxCell id="1" parent="0" />
        <mxCell id="CT9elgmPoWFy9NnniP89-7" value="" style="rounded=1;whiteSpace=wrap;html=1;fillColor=none;dashed=1;arcSize=5;" parent="1" vertex="1">
          <mxGeometry x="130" y="10" width="560" height="420" as="geometry" />
        </mxCell>
        <mxCell id="CT9elgmPoWFy9NnniP89-17" value="" style="edgeStyle=orthogonalEdgeStyle;rounded=0;orthogonalLoop=1;jettySize=auto;html=1;" parent="1" source="CT9elgmPoWFy9NnniP89-1" target="CT9elgmPoWFy9NnniP89-2" edge="1">
          <mxGeometry relative="1" as="geometry" />
        </mxCell>
        <mxCell id="CT9elgmPoWFy9NnniP89-18" value="Fetches metric information per container" style="edgeLabel;html=1;align=center;verticalAlign=middle;resizable=0;points=[];" parent="CT9elgmPoWFy9NnniP89-17" vertex="1" connectable="0">
          <mxGeometry x="0.2176" y="-2" relative="1" as="geometry">
            <mxPoint y="-7" as="offset" />
          </mxGeometry>
        </mxCell>
        <mxCell id="CT9elgmPoWFy9NnniP89-1" value="Grafana" style="rounded=1;whiteSpace=wrap;html=1;fontSize=14;" parent="1" vertex="1">
          <mxGeometry x="350" y="35" width="120" height="60" as="geometry" />
        </mxCell>
        <mxCell id="CT9elgmPoWFy9NnniP89-15" value="" style="edgeStyle=orthogonalEdgeStyle;rounded=0;orthogonalLoop=1;jettySize=auto;html=1;" parent="1" source="CT9elgmPoWFy9NnniP89-2" target="CT9elgmPoWFy9NnniP89-3" edge="1">
          <mxGeometry relative="1" as="geometry" />
        </mxCell>
        <mxCell id="CT9elgmPoWFy9NnniP89-16" value="Scrapes metrics" style="edgeLabel;html=1;align=center;verticalAlign=middle;resizable=0;points=[];" parent="CT9elgmPoWFy9NnniP89-15" vertex="1" connectable="0">
          <mxGeometry x="0.3616" y="-1" relative="1" as="geometry">
            <mxPoint x="18" y="41" as="offset" />
          </mxGeometry>
        </mxCell>
        <mxCell id="CT9elgmPoWFy9NnniP89-2" value="Prometheus" style="rounded=1;whiteSpace=wrap;html=1;fontSize=14;" parent="1" vertex="1">
          <mxGeometry x="350" y="140" width="120" height="60" as="geometry" />
        </mxCell>
        <mxCell id="CT9elgmPoWFy9NnniP89-13" style="edgeStyle=orthogonalEdgeStyle;rounded=0;orthogonalLoop=1;jettySize=auto;html=1;exitX=0.5;exitY=1;exitDx=0;exitDy=0;entryX=0;entryY=0.5;entryDx=0;entryDy=0;" parent="1" source="CT9elgmPoWFy9NnniP89-3" target="CT9elgmPoWFy9NnniP89-12" edge="1">
          <mxGeometry relative="1" as="geometry">
            <Array as="points">
              <mxPoint x="220" y="250" />
            </Array>
          </mxGeometry>
        </mxCell>
        <mxCell id="CT9elgmPoWFy9NnniP89-14" value="Fetch metrics" style="edgeLabel;html=1;align=center;verticalAlign=middle;resizable=0;points=[];" parent="CT9elgmPoWFy9NnniP89-13" vertex="1" connectable="0">
          <mxGeometry x="-0.1402" relative="1" as="geometry">
            <mxPoint x="26" y="-10" as="offset" />
          </mxGeometry>
        </mxCell>
        <mxCell id="CT9elgmPoWFy9NnniP89-3" value="cAdvisor" style="rounded=1;whiteSpace=wrap;html=1;fontSize=14;" parent="1" vertex="1">
          <mxGeometry x="160" y="140" width="120" height="60" as="geometry" />
        </mxCell>
        <mxCell id="CT9elgmPoWFy9NnniP89-4" value="postgres" style="rounded=1;whiteSpace=wrap;html=1;fontSize=14;" parent="1" vertex="1">
          <mxGeometry x="160" y="340" width="120" height="60" as="geometry" />
        </mxCell>
        <mxCell id="CT9elgmPoWFy9NnniP89-5" value="myrocks" style="rounded=1;whiteSpace=wrap;html=1;fontSize=14;" parent="1" vertex="1">
          <mxGeometry x="350" y="340" width="120" height="60" as="geometry" />
        </mxCell>
        <mxCell id="CT9elgmPoWFy9NnniP89-6" value="cockroachdb" style="rounded=1;whiteSpace=wrap;html=1;fontSize=14;" parent="1" vertex="1">
          <mxGeometry x="540" y="340" width="120" height="60" as="geometry" />
        </mxCell>
        <mxCell id="CT9elgmPoWFy9NnniP89-9" value="net" style="text;html=1;align=center;verticalAlign=middle;resizable=0;points=[];autosize=1;strokeColor=none;fillColor=none;" parent="1" vertex="1">
          <mxGeometry x="140" y="20" width="40" height="30" as="geometry" />
        </mxCell>
        <mxCell id="CT9elgmPoWFy9NnniP89-12" value="Docker Host" style="rounded=1;whiteSpace=wrap;html=1;fontSize=14;" parent="1" vertex="1">
          <mxGeometry x="350" y="220" width="120" height="60" as="geometry" />
        </mxCell>
        <mxCell id="CT9elgmPoWFy9NnniP89-20" value="" style="endArrow=none;html=1;rounded=0;" parent="1" source="CT9elgmPoWFy9NnniP89-4" target="CT9elgmPoWFy9NnniP89-12" edge="1">
          <mxGeometry width="50" height="50" relative="1" as="geometry">
            <mxPoint x="320" y="280" as="sourcePoint" />
            <mxPoint x="370" y="230" as="targetPoint" />
          </mxGeometry>
        </mxCell>
        <mxCell id="CT9elgmPoWFy9NnniP89-21" value="" style="endArrow=none;html=1;rounded=0;" parent="1" source="CT9elgmPoWFy9NnniP89-5" target="CT9elgmPoWFy9NnniP89-12" edge="1">
          <mxGeometry width="50" height="50" relative="1" as="geometry">
            <mxPoint x="278" y="350" as="sourcePoint" />
            <mxPoint x="373" y="290" as="targetPoint" />
          </mxGeometry>
        </mxCell>
        <mxCell id="CT9elgmPoWFy9NnniP89-22" value="" style="endArrow=none;html=1;rounded=0;" parent="1" source="CT9elgmPoWFy9NnniP89-6" target="CT9elgmPoWFy9NnniP89-12" edge="1">
          <mxGeometry width="50" height="50" relative="1" as="geometry">
            <mxPoint x="420" y="350" as="sourcePoint" />
            <mxPoint x="420" y="290" as="targetPoint" />
          </mxGeometry>
        </mxCell>
        <mxCell id="CT9elgmPoWFy9NnniP89-23" value="Manages Lifetime" style="text;html=1;align=center;verticalAlign=middle;resizable=0;points=[];autosize=1;strokeColor=none;fillColor=none;" parent="1" vertex="1">
          <mxGeometry x="346" y="285" width="120" height="30" as="geometry" />
        </mxCell>
        <mxCell id="8uZTdKMIEh7y_cjWd2Ds-1" value="" style="rounded=1;whiteSpace=wrap;html=1;fillColor=none;arcSize=5;" vertex="1" parent="1">
          <mxGeometry x="920" y="230" width="560" height="180" as="geometry" />
        </mxCell>
        <mxCell id="8uZTdKMIEh7y_cjWd2Ds-4" value="" style="group" vertex="1" connectable="0" parent="1">
          <mxGeometry x="1137" y="60" width="126" height="126" as="geometry" />
        </mxCell>
        <mxCell id="8uZTdKMIEh7y_cjWd2Ds-3" value="" style="rounded=1;whiteSpace=wrap;html=1;" vertex="1" parent="8uZTdKMIEh7y_cjWd2Ds-4">
          <mxGeometry width="126" height="126" as="geometry" />
        </mxCell>
        <mxCell id="8uZTdKMIEh7y_cjWd2Ds-2" value="AWS Fargate" style="sketch=0;points=[[0,0,0],[0.25,0,0],[0.5,0,0],[0.75,0,0],[1,0,0],[0,1,0],[0.25,1,0],[0.5,1,0],[0.75,1,0],[1,1,0],[0,0.25,0],[0,0.5,0],[0,0.75,0],[1,0.25,0],[1,0.5,0],[1,0.75,0]];outlineConnect=0;fontColor=#232F3E;fillColor=#ED7100;strokeColor=#ffffff;dashed=0;verticalLabelPosition=bottom;verticalAlign=top;align=center;html=1;fontSize=12;fontStyle=0;aspect=fixed;shape=mxgraph.aws4.resourceIcon;resIcon=mxgraph.aws4.fargate;" vertex="1" parent="8uZTdKMIEh7y_cjWd2Ds-4">
          <mxGeometry x="24" y="18" width="78" height="78" as="geometry" />
        </mxCell>
        <mxCell id="8uZTdKMIEh7y_cjWd2Ds-6" value="" style="shape=cylinder3;whiteSpace=wrap;html=1;boundedLbl=1;backgroundOutline=1;size=15;" vertex="1" parent="1">
          <mxGeometry x="960" y="260" width="70" height="70" as="geometry" />
        </mxCell>
        <mxCell id="8uZTdKMIEh7y_cjWd2Ds-7" value="PostgreSQL" style="text;html=1;align=center;verticalAlign=middle;resizable=0;points=[];autosize=1;strokeColor=none;fillColor=none;" vertex="1" parent="1">
          <mxGeometry x="950" y="330" width="90" height="30" as="geometry" />
        </mxCell>
        <mxCell id="8uZTdKMIEh7y_cjWd2Ds-8" value="" style="shape=cylinder3;whiteSpace=wrap;html=1;boundedLbl=1;backgroundOutline=1;size=15;" vertex="1" parent="1">
          <mxGeometry x="1080" y="260" width="70" height="70" as="geometry" />
        </mxCell>
        <mxCell id="8uZTdKMIEh7y_cjWd2Ds-9" value="MyRocks" style="text;html=1;align=center;verticalAlign=middle;resizable=0;points=[];autosize=1;strokeColor=none;fillColor=none;" vertex="1" parent="1">
          <mxGeometry x="1080" y="330" width="70" height="30" as="geometry" />
        </mxCell>
        <mxCell id="8uZTdKMIEh7y_cjWd2Ds-10" value="" style="shape=cylinder3;whiteSpace=wrap;html=1;boundedLbl=1;backgroundOutline=1;size=15;" vertex="1" parent="1">
          <mxGeometry x="1205" y="260" width="70" height="70" as="geometry" />
        </mxCell>
        <mxCell id="8uZTdKMIEh7y_cjWd2Ds-11" value="CockroachDB" style="text;html=1;align=center;verticalAlign=middle;resizable=0;points=[];autosize=1;strokeColor=none;fillColor=none;" vertex="1" parent="1">
          <mxGeometry x="1195" y="330" width="100" height="30" as="geometry" />
        </mxCell>
        <mxCell id="8uZTdKMIEh7y_cjWd2Ds-12" value="" style="endArrow=none;html=1;rounded=0;" edge="1" parent="1" source="8uZTdKMIEh7y_cjWd2Ds-1" target="8uZTdKMIEh7y_cjWd2Ds-3">
          <mxGeometry width="50" height="50" relative="1" as="geometry">
            <mxPoint x="1160" y="370" as="sourcePoint" />
            <mxPoint x="1210" y="320" as="targetPoint" />
          </mxGeometry>
        </mxCell>
        <mxCell id="8uZTdKMIEh7y_cjWd2Ds-13" value="" style="points=[];aspect=fixed;html=1;align=center;shadow=0;dashed=0;fillColor=#FF6A00;strokeColor=none;shape=mxgraph.alibaba_cloud.vpc_virtual_private_cloud;" vertex="1" parent="1">
          <mxGeometry x="1400" y="276.7" width="57" height="36.6" as="geometry" />
        </mxCell>
        <mxCell id="8uZTdKMIEh7y_cjWd2Ds-14" value="AWS VPC" style="text;html=1;align=center;verticalAlign=middle;resizable=0;points=[];autosize=1;strokeColor=none;fillColor=none;" vertex="1" parent="1">
          <mxGeometry x="1390" y="315" width="80" height="30" as="geometry" />
        </mxCell>
        <mxCell id="8uZTdKMIEh7y_cjWd2Ds-18" value="" style="rounded=1;arcSize=10;dashed=1;strokeColor=#ff0000;fillColor=none;gradientColor=none;dashPattern=8 4;strokeWidth=2;" vertex="1" parent="1">
          <mxGeometry x="940" y="245.25" width="380" height="134.75" as="geometry" />
        </mxCell>
        <mxCell id="8uZTdKMIEh7y_cjWd2Ds-20" value="" style="edgeStyle=orthogonalEdgeStyle;rounded=0;orthogonalLoop=1;jettySize=auto;html=1;" edge="1" parent="1" source="8uZTdKMIEh7y_cjWd2Ds-19" target="8uZTdKMIEh7y_cjWd2Ds-1">
          <mxGeometry relative="1" as="geometry" />
        </mxCell>
        <mxCell id="8uZTdKMIEh7y_cjWd2Ds-21" value="Traffic" style="edgeLabel;html=1;align=center;verticalAlign=middle;resizable=0;points=[];" vertex="1" connectable="0" parent="8uZTdKMIEh7y_cjWd2Ds-20">
          <mxGeometry x="-0.0667" y="2" relative="1" as="geometry">
            <mxPoint as="offset" />
          </mxGeometry>
        </mxCell>
        <mxCell id="8uZTdKMIEh7y_cjWd2Ds-19" value="" style="shape=image;html=1;verticalAlign=top;verticalLabelPosition=bottom;labelBackgroundColor=#ffffff;imageAspect=0;aspect=fixed;image=https://icons.diagrams.net/icon-cache1/Ionicons-2627/icon-ios7-world-outline-1344.svg" vertex="1" parent="1">
          <mxGeometry x="1152.5" y="455" width="95" height="95" as="geometry" />
        </mxCell>
      </root>
    </mxGraphModel>
  </diagram>
</mxfile>
